<svg width="20" height="21" viewBox="0 0 20 21" fill="none" xmlns="http://www.w3.org/2000/svg">
<path d="M20 7.80914C20 8.01322 19.9189 8.20894 19.7746 8.35325C19.6303 8.49755 19.4346 8.57862 19.2305 8.57862H17.6916V10.1176C17.6916 10.3217 17.6105 10.5174 17.4662 10.6617C17.3219 10.806 17.1261 10.8871 16.9221 10.8871C16.718 10.8871 16.5223 10.806 16.378 10.6617C16.2337 10.5174 16.1526 10.3217 16.1526 10.1176V8.57862H14.6136C14.4095 8.57862 14.2138 8.49755 14.0695 8.35325C13.9252 8.20894 13.8441 8.01322 13.8441 7.80914C13.8441 7.60506 13.9252 7.40934 14.0695 7.26503C14.2138 7.12073 14.4095 7.03966 14.6136 7.03966H16.1526V5.50069C16.1526 5.29661 16.2337 5.10089 16.378 4.95658C16.5223 4.81228 16.718 4.73121 16.9221 4.73121C17.1261 4.73121 17.3219 4.81228 17.4662 4.95658C17.6105 5.10089 17.6916 5.29661 17.6916 5.50069V7.03966H19.2305C19.4346 7.03966 19.6303 7.12073 19.7746 7.26503C19.9189 7.40934 20 7.60506 20 7.80914ZM10.7662 3.96172H11.5357V4.73121C11.5357 4.93529 11.6168 5.13101 11.7611 5.27531C11.9054 5.41962 12.1011 5.50069 12.3052 5.50069C12.5092 5.50069 12.705 5.41962 12.8493 5.27531C12.9936 5.13101 13.0747 4.93529 13.0747 4.73121V3.96172H13.8441C14.0482 3.96172 14.2439 3.88065 14.3882 3.73635C14.5325 3.59204 14.6136 3.39632 14.6136 3.19224C14.6136 2.98816 14.5325 2.79244 14.3882 2.64813C14.2439 2.50383 14.0482 2.42276 13.8441 2.42276H13.0747V1.65327C13.0747 1.44919 12.9936 1.25347 12.8493 1.10917C12.705 0.964859 12.5092 0.883789 12.3052 0.883789C12.1011 0.883789 11.9054 0.964859 11.7611 1.10917C11.6168 1.25347 11.5357 1.44919 11.5357 1.65327V2.42276H10.7662C10.5621 2.42276 10.3664 2.50383 10.2221 2.64813C10.0778 2.79244 9.99672 2.98816 9.99672 3.19224C9.99672 3.39632 10.0778 3.59204 10.2221 3.73635C10.3664 3.88065 10.5621 3.96172 10.7662 3.96172ZM17.7656 13.2917C17.8552 13.396 17.9152 13.5224 17.9394 13.6577C17.9636 13.793 17.9511 13.9323 17.9032 14.0612C17.3692 15.5173 16.4771 16.8155 15.3091 17.836C14.1411 18.8564 12.7349 19.5662 11.2203 19.8999C9.70566 20.2336 8.13137 20.1803 6.64273 19.7451C5.15408 19.3099 3.79904 18.5067 2.70266 17.4097C1.60628 16.3127 0.803883 14.9572 0.369519 13.4683C-0.0648455 11.9795 -0.11718 10.4051 0.217344 8.89069C0.551868 7.37623 1.26247 5.97044 2.28358 4.80304C3.30469 3.63565 4.60339 2.74426 6.05985 2.21115C6.18804 2.1642 6.32642 2.1522 6.46078 2.17638C6.59514 2.20057 6.72065 2.26006 6.82443 2.34876C6.92821 2.43746 7.00652 2.55218 7.05133 2.68113C7.09614 2.81009 7.10583 2.94865 7.07941 3.08259C6.80976 4.44743 6.88041 5.85767 7.28512 7.18873C7.68983 8.51979 8.41614 9.73068 9.39988 10.7144C10.3836 11.6982 11.5945 12.4245 12.9256 12.8292C14.2566 13.2339 15.6669 13.3045 17.0317 13.0349C17.1658 13.0087 17.3045 13.0187 17.4335 13.0638C17.5625 13.1089 17.6771 13.1876 17.7656 13.2917ZM15.9006 14.7229C15.7284 14.7316 15.5553 14.7364 15.3831 14.7364C12.7306 14.7336 10.1876 13.6785 8.31213 11.8027C6.4367 9.92696 5.38211 7.38371 5.37982 4.73121C5.37982 4.55903 5.37982 4.3859 5.39328 4.21373C4.36947 4.80287 3.49504 5.61982 2.83773 6.60126C2.18042 7.58271 1.75789 8.70231 1.60287 9.87331C1.44786 11.0443 1.56451 12.2353 1.9438 13.354C2.32309 14.4726 2.95484 15.489 3.79009 16.3242C4.62534 17.1595 5.64167 17.7912 6.76034 18.1705C7.87901 18.5498 9.06999 18.6665 10.241 18.5114C11.412 18.3564 12.5316 17.9339 13.513 17.2766C14.4945 16.6193 15.3114 15.7448 15.9006 14.721V14.7229Z" fill="black"/>
</svg>
