<svg width="20" height="21" viewBox="0 0 20 21" fill="none" xmlns="http://www.w3.org/2000/svg">
<path d="M9.33333 3.16667V1.16667C9.33333 0.989856 9.40357 0.820286 9.5286 0.695262C9.65362 0.570238 9.82319 0.5 10 0.5C10.1768 0.5 10.3464 0.570238 10.4714 0.695262C10.5964 0.820286 10.6667 0.989856 10.6667 1.16667V3.16667C10.6667 3.34348 10.5964 3.51305 10.4714 3.63807C10.3464 3.7631 10.1768 3.83333 10 3.83333C9.82319 3.83333 9.65362 3.7631 9.5286 3.63807C9.40357 3.51305 9.33333 3.34348 9.33333 3.16667ZM15.3333 10.5C15.3333 11.5548 15.0205 12.586 14.4345 13.463C13.8485 14.3401 13.0155 15.0237 12.041 15.4274C11.0664 15.831 9.99408 15.9366 8.95952 15.7309C7.92495 15.5251 6.97464 15.0171 6.22876 14.2712C5.48288 13.5254 4.97493 12.575 4.76915 11.5405C4.56336 10.5059 4.66898 9.43356 5.07264 8.45902C5.47631 7.48448 6.1599 6.65153 7.03696 6.0655C7.91402 5.47946 8.94517 5.16667 10 5.16667C11.414 5.16821 12.7697 5.73061 13.7695 6.73047C14.7694 7.73033 15.3318 9.08599 15.3333 10.5ZM14 10.5C14 9.70887 13.7654 8.93552 13.3259 8.27772C12.8864 7.61992 12.2616 7.10723 11.5307 6.80448C10.7998 6.50173 9.99556 6.42252 9.21964 6.57686C8.44372 6.7312 7.73098 7.11216 7.17157 7.67157C6.61216 8.23098 6.2312 8.94372 6.07686 9.71964C5.92252 10.4956 6.00173 11.2998 6.30448 12.0307C6.60723 12.7616 7.11992 13.3864 7.77772 13.8259C8.43552 14.2654 9.20887 14.5 10 14.5C11.0605 14.4989 12.0773 14.0771 12.8272 13.3272C13.5771 12.5773 13.9989 11.5605 14 10.5ZM4.195 5.63833C4.32009 5.76343 4.48976 5.8337 4.66667 5.8337C4.84358 5.8337 5.01324 5.76343 5.13833 5.63833C5.26343 5.51324 5.3337 5.34358 5.3337 5.16667C5.3337 4.98976 5.26343 4.82009 5.13833 4.695L3.805 3.36167C3.67991 3.23657 3.51024 3.1663 3.33333 3.1663C3.15642 3.1663 2.98676 3.23657 2.86167 3.36167C2.73657 3.48676 2.6663 3.65642 2.6663 3.83333C2.6663 4.01024 2.73657 4.17991 2.86167 4.305L4.195 5.63833ZM4.195 15.3617L2.86167 16.695C2.73657 16.8201 2.6663 16.9898 2.6663 17.1667C2.6663 17.3436 2.73657 17.5132 2.86167 17.6383C2.98676 17.7634 3.15642 17.8337 3.33333 17.8337C3.51024 17.8337 3.67991 17.7634 3.805 17.6383L5.13833 16.305C5.20027 16.2431 5.24941 16.1695 5.28293 16.0886C5.31645 16.0077 5.3337 15.9209 5.3337 15.8333C5.3337 15.7457 5.31645 15.659 5.28293 15.5781C5.24941 15.4971 5.20027 15.4236 5.13833 15.3617C5.07639 15.2997 5.00286 15.2506 4.92193 15.2171C4.841 15.1835 4.75426 15.1663 4.66667 15.1663C4.57907 15.1663 4.49233 15.1835 4.4114 15.2171C4.33047 15.2506 4.25694 15.2997 4.195 15.3617ZM15.3333 5.83333C15.4209 5.8334 15.5076 5.81622 15.5886 5.78276C15.6695 5.7493 15.743 5.70022 15.805 5.63833L17.1383 4.305C17.2634 4.17991 17.3337 4.01024 17.3337 3.83333C17.3337 3.65642 17.2634 3.48676 17.1383 3.36167C17.0132 3.23657 16.8436 3.1663 16.6667 3.1663C16.4898 3.1663 16.3201 3.23657 16.195 3.36167L14.8617 4.695C14.7683 4.78824 14.7047 4.90707 14.679 5.03646C14.6532 5.16585 14.6664 5.29998 14.7169 5.42186C14.7674 5.54374 14.8529 5.6479 14.9627 5.72115C15.0724 5.79439 15.2014 5.83344 15.3333 5.83333ZM15.805 15.3617C15.6799 15.2366 15.5102 15.1663 15.3333 15.1663C15.1564 15.1663 14.9868 15.2366 14.8617 15.3617C14.7366 15.4868 14.6663 15.6564 14.6663 15.8333C14.6663 16.0102 14.7366 16.1799 14.8617 16.305L16.195 17.6383C16.2569 17.7003 16.3305 17.7494 16.4114 17.7829C16.4923 17.8165 16.5791 17.8337 16.6667 17.8337C16.7543 17.8337 16.841 17.8165 16.9219 17.7829C17.0029 17.7494 17.0764 17.7003 17.1383 17.6383C17.2003 17.5764 17.2494 17.5029 17.2829 17.4219C17.3165 17.341 17.3337 17.2543 17.3337 17.1667C17.3337 17.0791 17.3165 16.9923 17.2829 16.9114C17.2494 16.8305 17.2003 16.7569 17.1383 16.695L15.805 15.3617ZM3.33333 10.5C3.33333 10.3232 3.2631 10.1536 3.13807 10.0286C3.01305 9.90357 2.84348 9.83333 2.66667 9.83333H0.666667C0.489856 9.83333 0.320286 9.90357 0.195262 10.0286C0.0702379 10.1536 0 10.3232 0 10.5C0 10.6768 0.0702379 10.8464 0.195262 10.9714C0.320286 11.0964 0.489856 11.1667 0.666667 11.1667H2.66667C2.84348 11.1667 3.01305 11.0964 3.13807 10.9714C3.2631 10.8464 3.33333 10.6768 3.33333 10.5ZM10 17.1667C9.82319 17.1667 9.65362 17.2369 9.5286 17.3619C9.40357 17.487 9.33333 17.6565 9.33333 17.8333V19.8333C9.33333 20.0101 9.40357 20.1797 9.5286 20.3047C9.65362 20.4298 9.82319 20.5 10 20.5C10.1768 20.5 10.3464 20.4298 10.4714 20.3047C10.5964 20.1797 10.6667 20.0101 10.6667 19.8333V17.8333C10.6667 17.6565 10.5964 17.487 10.4714 17.3619C10.3464 17.2369 10.1768 17.1667 10 17.1667ZM19.3333 9.83333H17.3333C17.1565 9.83333 16.987 9.90357 16.8619 10.0286C16.7369 10.1536 16.6667 10.3232 16.6667 10.5C16.6667 10.6768 16.7369 10.8464 16.8619 10.9714C16.987 11.0964 17.1565 11.1667 17.3333 11.1667H19.3333C19.5101 11.1667 19.6797 11.0964 19.8047 10.9714C19.9298 10.8464 20 10.6768 20 10.5C20 10.3232 19.9298 10.1536 19.8047 10.0286C19.6797 9.90357 19.5101 9.83333 19.3333 9.83333Z" fill="black"/>
</svg>
