<svg width="14" height="15" viewBox="0 0 14 15" fill="none" xmlns="http://www.w3.org/2000/svg">
<path d="M13.5016 3.84964C13.6601 3.33837 13.7109 2.79982 13.6509 2.26793C13.5909 1.73604 13.4213 1.22236 13.1529 0.759268C13.1074 0.680426 13.0419 0.614958 12.963 0.569448C12.8842 0.523937 12.7947 0.499988 12.7037 0.500008C12.0998 0.498744 11.5039 0.638754 10.9637 0.90885C10.4235 1.17895 9.95395 1.57164 9.59259 2.05556H8.03704C7.67568 1.57164 7.20614 1.17895 6.66595 0.90885C6.12576 0.638754 5.52988 0.498744 4.92593 0.500008C4.83489 0.499988 4.74545 0.523937 4.6666 0.569448C4.58775 0.614958 4.52228 0.680426 4.47676 0.759268C4.20833 1.22236 4.03876 1.73604 3.97874 2.26793C3.91873 2.79982 3.96957 3.33837 4.12806 3.84964C3.80769 4.4088 3.63609 5.04079 3.62963 5.68519V6.20371C3.63072 7.08104 3.94921 7.92836 4.52629 8.58919C5.10337 9.25002 5.90007 9.67973 6.76926 9.79898C6.41447 10.253 6.22189 10.8127 6.22222 11.3889V11.9074H4.66667C4.25411 11.9074 3.85845 11.7435 3.56672 11.4518C3.275 11.1601 3.11111 10.7644 3.11111 10.3519C3.11111 10.0114 3.04405 9.67426 2.91376 9.35971C2.78347 9.04517 2.5925 8.75936 2.35176 8.51862C2.11101 8.27787 1.82521 8.0869 1.51066 7.95661C1.19611 7.82632 0.858983 7.75926 0.518519 7.75926C0.380999 7.75926 0.249112 7.81389 0.151871 7.91113C0.0546295 8.00837 0 8.14026 0 8.27778C0 8.4153 0.0546295 8.54719 0.151871 8.64443C0.249112 8.74167 0.380999 8.7963 0.518519 8.7963C0.931077 8.7963 1.32674 8.96019 1.61846 9.25191C1.91019 9.54363 2.07407 9.9393 2.07407 10.3519C2.07407 11.0395 2.34722 11.6989 2.83343 12.1851C3.31963 12.6713 3.97907 12.9444 4.66667 12.9444H6.22222V13.9815C6.22222 14.119 6.27685 14.2509 6.37409 14.3481C6.47133 14.4454 6.60322 14.5 6.74074 14.5C6.87826 14.5 7.01015 14.4454 7.10739 14.3481C7.20463 14.2509 7.25926 14.119 7.25926 13.9815V11.3889C7.25926 10.9763 7.42315 10.5807 7.71487 10.2889C8.00659 9.99722 8.40226 9.83334 8.81481 9.83334C9.22737 9.83334 9.62304 9.99722 9.91476 10.2889C10.2065 10.5807 10.3704 10.9763 10.3704 11.3889V13.9815C10.3704 14.119 10.425 14.2509 10.5222 14.3481C10.6195 14.4454 10.7514 14.5 10.8889 14.5C11.0264 14.5 11.1583 14.4454 11.2555 14.3481C11.3528 14.2509 11.4074 14.119 11.4074 13.9815V11.3889C11.4077 10.8127 11.2152 10.253 10.8604 9.79898C11.7296 9.67973 12.5263 9.25002 13.1033 8.58919C13.6804 7.92836 13.9989 7.08104 14 6.20371V5.68519C13.9935 5.04079 13.8219 4.4088 13.5016 3.84964ZM12.963 6.20371C12.963 6.89131 12.6898 7.55074 12.2036 8.03695C11.7174 8.52315 11.058 8.7963 10.3704 8.7963H7.25926C6.57166 8.7963 5.91222 8.52315 5.42602 8.03695C4.93981 7.55074 4.66667 6.89131 4.66667 6.20371V5.68519C4.67302 5.16669 4.82826 4.66094 5.11389 4.22815C5.16713 4.15797 5.20162 4.07538 5.2141 3.98818C5.22657 3.90097 5.21662 3.81202 5.18518 3.72973C5.05013 3.38141 4.98513 3.00987 4.99391 2.63639C5.0027 2.26291 5.0851 1.89483 5.23639 1.55325C5.66074 1.5989 6.06938 1.73947 6.43201 1.96454C6.79464 2.18962 7.10197 2.49342 7.3312 2.85343C7.37792 2.92648 7.4422 2.98665 7.51818 3.02843C7.59416 3.07022 7.6794 3.09228 7.76611 3.0926H9.86287C9.94991 3.0926 10.0355 3.0707 10.1119 3.0289C10.1882 2.9871 10.2528 2.92676 10.2997 2.85343C10.5289 2.49339 10.8362 2.18956 11.1989 1.96448C11.5615 1.73941 11.9702 1.59885 12.3945 1.55325C12.5456 1.89491 12.6278 2.26303 12.6364 2.63652C12.6449 3.01 12.5797 3.3815 12.4444 3.72973C12.4131 3.81124 12.4026 3.89928 12.4139 3.98587C12.4253 4.07246 12.458 4.15485 12.5093 4.22556C12.7977 4.65835 12.9552 5.16514 12.963 5.68519V6.20371Z" fill="black"/>
</svg>
