<svg width="188" height="35" viewBox="0 0 188 35" fill="none" xmlns="http://www.w3.org/2000/svg">
<path d="M5.688 26V25.244L7.128 24.956C8.136 24.74 8.64 24.152 8.64 23.192V13.364C8.64 11.684 8.64 10.004 8.64 8.324C8.64 6.644 8.628 4.964 8.604 3.284H5.76C4.992 3.284 4.428 3.488 4.068 3.896C3.708 4.304 3.348 4.88 2.988 5.624L1.728 8.288H0.72L0.9 2.204H21.564L21.744 8.288H20.736L19.476 5.624C19.116 4.88 18.756 4.304 18.396 3.896C18.036 3.488 17.472 3.284 16.704 3.284H13.824V23.192C13.824 24.176 14.328 24.764 15.336 24.956L16.812 25.244V26H5.688ZM29.5138 8.18C31.0258 8.18 32.3218 8.492 33.4018 9.116C34.4818 9.74 35.3098 10.604 35.8858 11.708C36.4858 12.788 36.7858 14.036 36.7858 15.452C36.7858 15.764 36.7738 16.064 36.7498 16.352C36.7258 16.616 36.6778 16.868 36.6058 17.108H25.7698C25.7938 19.58 26.2498 21.356 27.1378 22.436C28.0498 23.516 29.3698 24.056 31.0978 24.056C32.2978 24.056 33.2698 23.864 34.0138 23.48C34.7578 23.072 35.4418 22.508 36.0658 21.788L36.6418 22.328C35.9218 23.648 34.9378 24.68 33.6898 25.424C32.4658 26.144 31.0018 26.504 29.2978 26.504C27.5938 26.504 26.0938 26.144 24.7978 25.424C23.5018 24.704 22.4818 23.672 21.7378 22.328C21.0178 20.96 20.6578 19.328 20.6578 17.432C20.6578 15.464 21.0778 13.796 21.9178 12.428C22.7818 11.06 23.8858 10.016 25.2298 9.296C26.5978 8.552 28.0258 8.18 29.5138 8.18ZM29.3338 9.224C28.6378 9.224 28.0258 9.428 27.4978 9.836C26.9938 10.22 26.5858 10.916 26.2738 11.924C25.9858 12.908 25.8178 14.3 25.7698 16.1H32.2138C32.4778 13.676 32.3818 11.924 31.9258 10.844C31.4698 9.764 30.6058 9.224 29.3338 9.224ZM38.6193 26V25.28L39.4113 25.064C39.7953 24.944 40.0473 24.776 40.1673 24.56C40.2873 24.32 40.3593 24.008 40.3833 23.624V16.496C40.3833 15.704 40.3833 15.032 40.3833 14.48C40.3833 13.928 40.3713 13.28 40.3473 12.536C40.3473 12.128 40.2873 11.816 40.1673 11.6C40.0473 11.36 39.7833 11.192 39.3753 11.096L38.6193 10.916V10.268L44.4513 8.18L44.8833 8.576L45.1353 10.988C45.9753 10.22 46.9113 9.56 47.9433 9.008C48.9753 8.456 50.0313 8.18 51.1113 8.18C52.3113 8.18 53.2473 8.42 53.9193 8.9C54.5913 9.38 55.1073 10.112 55.4673 11.096C56.3793 10.184 57.3873 9.476 58.4913 8.972C59.5953 8.444 60.6873 8.18 61.7673 8.18C63.3993 8.18 64.6233 8.588 65.4393 9.404C66.2553 10.22 66.6633 11.504 66.6633 13.256V23.66C66.6633 24.428 66.9993 24.908 67.6713 25.1L68.3553 25.28V26H60.2553V25.28L60.9033 25.1C61.5513 24.884 61.8753 24.392 61.8753 23.624V13.076C61.8753 12.044 61.6833 11.348 61.2993 10.988C60.9393 10.604 60.3393 10.412 59.4993 10.412C58.8513 10.412 58.2393 10.544 57.6633 10.808C57.0873 11.072 56.4513 11.48 55.7553 12.032C55.8993 12.752 55.9713 13.58 55.9713 14.516V23.66C55.9953 24.068 56.0673 24.392 56.1873 24.632C56.3313 24.848 56.5953 25.004 56.9793 25.1L57.5913 25.28V26H49.4553V25.28L50.2113 25.064C50.5953 24.944 50.8473 24.776 50.9673 24.56C51.1113 24.32 51.1833 24.008 51.1833 23.624V13.112C51.1833 12.128 51.0033 11.432 50.6433 11.024C50.2833 10.616 49.6713 10.412 48.8073 10.412C47.7033 10.412 46.5153 10.94 45.2433 11.996V23.66C45.2433 24.452 45.5793 24.932 46.2513 25.1L46.8633 25.28V26H38.6193ZM69.3107 34.316V33.632L69.7787 33.488C70.2587 33.368 70.5947 33.164 70.7867 32.876C70.9787 32.612 71.0747 32.228 71.0747 31.724C71.0747 30.74 71.0747 29.804 71.0747 28.916C71.0987 28.052 71.1107 27.212 71.1107 26.396V16.496C71.1107 15.752 71.1107 15.116 71.1107 14.588C71.1107 14.036 71.0987 13.424 71.0747 12.752C71.0747 12.248 70.9907 11.864 70.8227 11.6C70.6547 11.312 70.3307 11.12 69.8507 11.024L69.3107 10.916V10.268L75.1067 8.18L75.5387 8.54L75.8627 9.872C77.5187 8.744 79.3907 8.18 81.4787 8.18C83.5187 8.18 85.1507 8.948 86.3747 10.484C87.6227 12.02 88.2467 14.288 88.2467 17.288C88.2467 20.192 87.5627 22.46 86.1947 24.092C84.8507 25.7 83.0147 26.504 80.6867 26.504C79.7507 26.504 78.8627 26.42 78.0227 26.252C77.2067 26.084 76.4747 25.832 75.8267 25.496V26.576C75.8267 27.296 75.8267 28.076 75.8267 28.916C75.8507 29.756 75.8627 30.668 75.8627 31.652C75.8627 32.612 76.2827 33.212 77.1227 33.452L77.8067 33.632V34.316H69.3107ZM78.9947 25.064C80.2667 25.064 81.2627 24.5 81.9827 23.372C82.7267 22.22 83.0987 20.24 83.0987 17.432C83.0987 14.648 82.7507 12.704 82.0547 11.6C81.3587 10.472 80.3747 9.908 79.1027 9.908C78.6467 9.908 78.1547 9.98 77.6267 10.124C77.0987 10.268 76.5347 10.508 75.9347 10.844V24.452C76.8947 24.86 77.9147 25.064 78.9947 25.064ZM89.8085 26V25.316L90.3485 25.172C91.1405 24.908 91.5365 24.308 91.5365 23.372C91.5365 22.556 91.5365 21.74 91.5365 20.924C91.5605 20.084 91.5725 19.256 91.5725 18.44V4.76C91.5725 4.256 91.4885 3.884 91.3205 3.644C91.1525 3.38 90.8285 3.188 90.3485 3.068L89.8085 2.924V2.24L96.1085 0.727999L96.5765 1.052L96.4325 6.128V23.372C96.4565 23.852 96.5525 24.248 96.7205 24.56C96.9125 24.848 97.2365 25.052 97.6925 25.172L98.1965 25.316V26H89.8085ZM104.695 26.504C103.327 26.504 102.163 26.12 101.203 25.352C100.267 24.56 99.7988 23.432 99.7988 21.968C99.7988 20.816 100.351 19.76 101.455 18.8C102.583 17.816 104.347 17.096 106.747 16.64C107.155 16.544 107.623 16.46 108.151 16.388C108.703 16.292 109.243 16.196 109.771 16.1V13.544C109.771 11.912 109.567 10.784 109.159 10.16C108.751 9.536 108.103 9.224 107.215 9.224H107.107C106.555 9.224 106.111 9.404 105.775 9.764C105.463 10.1 105.259 10.664 105.163 11.456L105.055 11.924C104.983 12.884 104.731 13.592 104.299 14.048C103.867 14.48 103.327 14.696 102.679 14.696C102.079 14.696 101.575 14.516 101.167 14.156C100.783 13.772 100.591 13.28 100.591 12.68C100.591 11.696 100.927 10.868 101.599 10.196C102.271 9.524 103.159 9.02 104.263 8.684C105.391 8.348 106.603 8.18 107.899 8.18C110.035 8.18 111.667 8.696 112.795 9.728C113.923 10.76 114.487 12.44 114.487 14.768V22.796C114.487 23.828 114.979 24.344 115.963 24.344H116.791L117.151 24.74C116.719 25.292 116.239 25.712 115.711 26C115.183 26.312 114.463 26.468 113.551 26.468C112.519 26.468 111.691 26.228 111.067 25.748C110.467 25.244 110.071 24.584 109.879 23.768C109.111 24.584 108.355 25.244 107.611 25.748C106.867 26.252 105.895 26.504 104.695 26.504ZM106.783 24.2C107.263 24.2 107.719 24.092 108.151 23.876C108.583 23.66 109.123 23.3 109.771 22.796V17.036C109.147 17.132 108.511 17.252 107.863 17.396C106.831 17.636 105.991 18.08 105.343 18.728C104.719 19.376 104.407 20.252 104.407 21.356C104.407 22.316 104.623 23.036 105.055 23.516C105.511 23.972 106.087 24.2 106.783 24.2ZM124.735 26.504C123.247 26.504 122.071 26.144 121.207 25.424C120.367 24.68 119.947 23.48 119.947 21.824C119.947 21.248 119.947 20.708 119.947 20.204C119.971 19.676 119.983 19.064 119.983 18.368V9.836H117.427V9.044L118.399 8.9C119.095 8.78 119.683 8.564 120.163 8.252C120.667 7.94 121.123 7.508 121.531 6.956L123.871 3.716H124.951L124.843 8.72H128.947V9.836H124.807V22.112C124.807 22.976 124.987 23.624 125.347 24.056C125.731 24.488 126.199 24.704 126.751 24.704C127.231 24.704 127.663 24.596 128.047 24.38C128.431 24.14 128.815 23.828 129.199 23.444L129.667 23.984C129.211 24.776 128.575 25.4 127.759 25.856C126.943 26.288 125.935 26.504 124.735 26.504ZM137.138 26.504C136.202 26.504 135.35 26.336 134.582 26C133.814 25.64 133.202 25.064 132.746 24.272C132.314 23.456 132.11 22.388 132.134 21.068L132.242 12.032C132.242 11.504 132.158 11.12 131.99 10.88C131.822 10.64 131.522 10.472 131.09 10.376L130.658 10.232V9.584L136.814 8.396L137.21 8.792L137.03 13.868V22.04C137.03 22.856 137.246 23.456 137.678 23.84C138.134 24.2 138.698 24.38 139.37 24.38C140.066 24.38 140.69 24.284 141.242 24.092C141.818 23.876 142.406 23.564 143.006 23.156L143.114 12.068C143.114 11.516 143.03 11.132 142.862 10.916C142.718 10.7 142.43 10.532 141.998 10.412L141.602 10.304V9.656L147.614 8.396L148.01 8.792L147.902 13.868V23.3C147.902 23.804 147.962 24.212 148.082 24.524C148.226 24.812 148.526 25.028 148.982 25.172L149.45 25.316V26L143.366 26.36L143.042 24.092C142.226 24.788 141.338 25.364 140.378 25.82C139.418 26.276 138.338 26.504 137.138 26.504ZM150.908 26V25.316L151.484 25.172C152.276 24.932 152.672 24.344 152.672 23.408V12.788C152.648 12.284 152.564 11.9 152.42 11.636C152.276 11.348 151.964 11.156 151.484 11.06L150.908 10.916V10.268L156.74 8.18L157.172 8.576L157.424 10.808C158.288 10.04 159.248 9.416 160.304 8.936C161.384 8.432 162.44 8.18 163.472 8.18C165.056 8.18 166.268 8.612 167.108 9.476C167.972 10.34 168.404 11.66 168.404 13.436V23.444C168.404 24.38 168.836 24.968 169.7 25.208L170.096 25.316V26H161.816V25.316L162.356 25.172C163.148 24.908 163.544 24.32 163.544 23.408V12.716C163.544 11.876 163.364 11.264 163.004 10.88C162.644 10.496 162.044 10.304 161.204 10.304C160.028 10.304 158.804 10.82 157.532 11.852V23.444C157.532 24.38 157.952 24.968 158.792 25.208L159.152 25.316V26H150.908ZM180.58 8.18C182.092 8.18 183.388 8.492 184.468 9.116C185.548 9.74 186.376 10.604 186.952 11.708C187.552 12.788 187.852 14.036 187.852 15.452C187.852 15.764 187.84 16.064 187.816 16.352C187.792 16.616 187.744 16.868 187.672 17.108H176.836C176.86 19.58 177.316 21.356 178.204 22.436C179.116 23.516 180.436 24.056 182.164 24.056C183.364 24.056 184.336 23.864 185.08 23.48C185.824 23.072 186.508 22.508 187.132 21.788L187.708 22.328C186.988 23.648 186.004 24.68 184.756 25.424C183.532 26.144 182.068 26.504 180.364 26.504C178.66 26.504 177.16 26.144 175.864 25.424C174.568 24.704 173.548 23.672 172.804 22.328C172.084 20.96 171.724 19.328 171.724 17.432C171.724 15.464 172.144 13.796 172.984 12.428C173.848 11.06 174.952 10.016 176.296 9.296C177.664 8.552 179.092 8.18 180.58 8.18ZM180.4 9.224C179.704 9.224 179.092 9.428 178.564 9.836C178.06 10.22 177.652 10.916 177.34 11.924C177.052 12.908 176.884 14.3 176.836 16.1H183.28C183.544 13.676 183.448 11.924 182.992 10.844C182.536 9.764 181.672 9.224 180.4 9.224Z" fill="#222222"/>
</svg>
