<svg width="13" height="13" viewBox="0 0 13 13" fill="none" xmlns="http://www.w3.org/2000/svg">
<path d="M13 0.7222V10.1108C13 10.3023 12.9239 10.486 12.7885 10.6215C12.653 10.7569 12.4693 10.833 12.2778 10.833C12.0863 10.833 11.9026 10.7569 11.7671 10.6215C11.6317 10.486 11.5556 10.3023 11.5556 10.1108V2.46541L1.23356 12.7884C1.09804 12.9239 0.914247 13 0.722601 13C0.530956 13 0.347159 12.9239 0.211645 12.7884C0.0761309 12.6528 0 12.469 0 12.2774C0 12.0858 0.0761309 11.902 0.211645 11.7664L10.5346 1.4444H2.8892C2.69766 1.4444 2.51397 1.36831 2.37853 1.23287C2.24309 1.09743 2.167 0.913739 2.167 0.7222C2.167 0.530661 2.24309 0.346966 2.37853 0.211528C2.51397 0.0760888 2.69766 0 2.8892 0H12.2778C12.4693 0 12.653 0.0760888 12.7885 0.211528C12.9239 0.346966 13 0.530661 13 0.7222Z" fill="black"/>
</svg>
